<?xml version="1.0" standalone="no"?>
<!DOCTYPE svg PUBLIC "-//W3C//DTD SVG 1.1//EN" "http://www.w3.org/Graphics/SVG/1.1/DTD/svg11.dtd" >
<svg xmlns="http://www.w3.org/2000/svg" xmlns:xlink="http://www.w3.org/1999/xlink" version="1.1">
<metadata>
Created by FontForge 20170731 at Sat Jul  9 10:23:59 2016
 By Aleksey,,,
Copyright (c) 2015 by Rajesh Rajput. All rights reserved.
</metadata>
<defs>
<font id="BreakFill" horiz-adv-x="217" >
  <font-face 
    font-family="Break Fill"
    font-weight="400"
    font-stretch="normal"
    units-per-em="1000"
    panose-1="2 0 5 6 0 0 0 2 0 3"
    ascent="800"
    descent="-200"
    x-height="440"
    cap-height="680"
    bbox="-70 -301 766.538 839"
    underline-thickness="50"
    underline-position="-200"
    unicode-range="U+000D-2044"
  />
<missing-glyph horiz-adv-x="500" 
 />
    <glyph glyph-name=".notdef" horiz-adv-x="500" 
 />
    <glyph glyph-name=".null" horiz-adv-x="0" 
 />
    <glyph glyph-name="nonmarkingreturn" horiz-adv-x="333" 
 />
    <glyph glyph-name="NULL" horiz-adv-x="0" 
 />
    <glyph glyph-name="NULL" horiz-adv-x="0" 
 />
    <glyph glyph-name="CR" unicode="&#xd;" horiz-adv-x="300" 
 />
    <glyph glyph-name="space" unicode=" " horiz-adv-x="350" 
 />
    <glyph glyph-name="exclam" unicode="!" horiz-adv-x="204" 
d="M31 122q-7 0 -12 4.5t-5 11.5v525q0 7 5 12t12 5t12 -5t5 -12v-525q0 -7 -5 -11.5t-12 -4.5zM31 62q13 0 22 -9t9 -22t-9 -22t-22 -9t-22 9t-9 22t9 22t22 9z" />
    <glyph glyph-name="quotedbl" unicode="&#x22;" horiz-adv-x="833" 
 />
    <glyph glyph-name="numbersign" unicode="#" horiz-adv-x="800" 
d="M464 237h199q7 0 12 -5t5 -12q0 -18 -17 -18h-204l-26 -187q-1 -15 -17 -15h-2q-20 2 -15 20l25 182h-205l-26 -187q-2 -15 -17 -15h-3q-7 1 -11.5 6.5t-2.5 13.5l25 182h-167q-17 0 -17 18q0 7 5 12t12 5h171l28 206h-199q-17 0 -17 17t17 17h204l26 188q1 7 6.5 11.5
t12.5 3.5q17 -3 15 -20l-25 -183h205l26 188q1 7 6.5 11.5t12.5 3.5q19 -5 15 -20l-25 -183h167q17 0 17 -17t-17 -17h-171zM223 237h205l28 206h-205z" />
    <glyph glyph-name="dollar" unicode="$" horiz-adv-x="490" 
d="M356 239q0 -68 -46.5 -119.5t-113.5 -57.5v-44q0 -18 -18 -18t-18 18v44q-67 6 -113.5 57.5t-46.5 119.5q0 56 31 100q9 14 24 5q13 -12 5 -25q-25 -35 -25 -80q0 -54 36 -95t89 -47v287q-42 7 -70.5 39.5t-28.5 77.5q0 44 28.5 76.5t71.5 40.5v44q0 18 17 18
q18 0 18 -18v-44q44 -6 73 -39t29 -78q0 -18 -18 -18q-17 0 -17 18q0 34 -24.5 58.5t-58.5 24.5q-35 0 -59.5 -24.5t-24.5 -58.5q0 -35 24.5 -59.5t59.5 -24.5q72 0 124 -52.5t52 -125.5zM196 381v-284q53 6 89 47t36 95t-36 95t-89 47z" />
    <glyph glyph-name="percent" unicode="%" horiz-adv-x="833" 
d="M504 678q15 -8 8 -23l-345 -646q-5 -9 -16 -9l-8 2q-6 3 -8 10t1 13l345 646q10 14 23 7zM236 451q0 -48 -35 -83t-83 -35t-83 35t-35 83t35 82.5t83 34.5t83 -34.5t35 -82.5zM118 367q35 0 59 24.5t24 59.5q0 34 -24 58.5t-59 24.5t-59 -24.5t-24 -58.5q0 -35 24 -59.5
t59 -24.5zM513 336q48 0 83 -35t35 -83t-35 -83t-83 -35t-83 35t-35 83t35 83t83 35zM513 135q35 0 59 24t24 59t-24 59t-59 24t-59 -24t-24 -59t24 -59t59 -24z" />
    <glyph glyph-name="ampersand" unicode="&#x26;" horiz-adv-x="615" 
d="M486 438q6 -29 -10.5 -54.5t-45.5 -31.5l-27 -6q39 -55 39 -125q0 -91 -65 -156t-156 -65t-156 65t-65 156q0 56 25.5 104t71.5 79l99 66q-36 8 -59 36.5t-23 66.5q0 44 31.5 75.5t75.5 31.5t75.5 -31.5t31.5 -75.5q0 -57 -48 -88l-163 -109q-82 -55 -82 -155
q0 -77 54.5 -131.5t131.5 -54.5q78 0 132.5 54.5t54.5 131.5q0 66 -42 117l-28 -6q-14 -3 -24 -16q-8 -14 -5 -29q5 -14 -13 -20q-1 -1 -4 -1q-14 0 -17 14q-6 29 10.5 54.5t45.5 31.5l92 20q15 3 23.5 16t5.5 29q-5 14 13 20q15 5 21 -13zM149 573q0 -29 21 -50.5t51 -21.5
t51 21.5t21 50.5q0 30 -21 51t-51 21t-51 -21t-21 -51z" />
    <glyph glyph-name="parenleft" unicode="(" horiz-adv-x="373" 
d="M227 648q-125 -125 -169 -292t0 -334t169 -292q12 -12 0 -26q-8 -5 -13 -5q-8 0 -13 5q-99 99 -150.5 227t-51.5 258.5t51.5 258.5t150.5 227q12 12 26 0q12 -13 0 -27z" />
    <glyph glyph-name="parenright" unicode=")" horiz-adv-x="373" 
d="M5 648q-12 14 0 27q14 12 26 0q99 -99 150.5 -227t51.5 -258.5t-51.5 -258.5t-150.5 -227q-5 -5 -13 -5q-5 0 -13 5q-12 14 0 26q125 125 169 292t0 334t-169 292z" />
    <glyph glyph-name="asterisk" unicode="*" horiz-adv-x="356" 
d="M147 580h74q15 0 15 -15q0 -16 -15 -16h-74l49 -75q9 -13 -4 -22q-8 -2 -9 -2q-9 0 -13 7l-52 80l-52 -80q-4 -7 -13 -7q-2 0 -8 2q-14 9 -5 22l49 75h-73q-16 0 -16 16q0 15 16 15h73l-49 76q-4 5 -2.5 11.5t7.5 9.5q12 9 21 -4l52 -80l52 80q9 13 22 4q13 -8 4 -21z
" />
    <glyph glyph-name="plus" unicode="+" horiz-adv-x="587" 
d="M252 240h199q18 0 18 -18t-18 -18h-199v-186q0 -18 -18 -18t-18 18v186h-199q-18 0 -18 18t18 18h199v186q0 18 18 18t18 -18v-186z" />
    <glyph glyph-name="comma" unicode="," 
d="M41 82q17 0 29 -12t12 -29q0 -8 -4 -17l-31 -66q-3 -6 -9 -6h-1q-1 1 -2 1q-9 5 -5 12l17 36q-1 0 -3 -0.5t-3 -0.5q-17 0 -29 12t-12 29t12 29t29 12z" />
    <glyph glyph-name="hyphen" unicode="-" horiz-adv-x="321" 
d="M19 253h163q8 0 13.5 -6t5.5 -14q0 -19 -19 -19h-163q-19 0 -19 19q0 8 5.5 14t13.5 6z" />
    <glyph glyph-name="period" unicode="." 
d="M41 81q17 0 29 -12t12 -29t-12 -29.5t-29 -12.5t-29 12.5t-12 29.5t12 29t29 12z" />
    <glyph glyph-name="slash" unicode="/" horiz-adv-x="435" 
d="M290 679q14 -7 10 -23l-267 -646q-4 -10 -16 -10q-5 0 -7 1q-15 7 -9 22l267 646q7 16 22 10z" />
    <glyph glyph-name="zero" unicode="0" horiz-adv-x="553" 
d="M422 471v-258q2 -86 -60 -149q-59 -62 -149 -64h-2q-87 0 -149 61t-62 147v1v258q0 88 60.5 150.5t147.5 62.5q87 2 150.5 -59.5t63.5 -149.5zM335 90q51 52 49 123v258q0 72 -51.5 121.5t-123.5 49.5t-122 -51.5t-50 -123.5v-258q2 -72 53 -122q50 -50 123 -50
q72 2 122 53z" />
    <glyph glyph-name="one" unicode="1" horiz-adv-x="313" 
d="M154 0q-19 0 -19 19v597l-103 -103q-13 -14 -27 0q-13 13 0 27l135 134q14 14 25 2q8 -6 8 -15v-642q0 -19 -19 -19z" />
    <glyph glyph-name="two" unicode="2" horiz-adv-x="520" 
d="M345 0h-326q-8 0 -14 6q-13 14 -1 26l309 379q36 41 36 93q0 57 -40.5 97.5t-98.5 40.5q-57 0 -97.5 -40.5t-40.5 -97.5q0 -59 43 -100q12 -14 0 -27q-12 -14 -27 -1q-54 53 -54 128q0 72 52 124t124 52t124 -52t52 -124q0 -68 -44 -117l-285 -349h288q19 0 19 -19
t-19 -19z" />
    <glyph glyph-name="three" unicode="3" horiz-adv-x="519" 
d="M194 0q-80 0 -137 57t-57 137q0 60 35 110q4 7 11.5 8.5t14.5 -3.5q15 -13 4 -26q-27 -41 -27 -89q0 -64 46 -110t110 -46t110 46t46 110t-46 110t-110 46q-12 0 -16 9q-6 7 -1 18t17 11q52 0 89.5 37.5t37.5 89.5t-37.5 89.5t-89.5 37.5t-90 -37.5t-38 -89.5
q0 -44 27 -77q10 -14 -4 -27q-14 -12 -26 4q-34 43 -34 100q0 68 48.5 116.5t116.5 48.5t116.5 -48.5t48.5 -116.5q0 -46 -23.5 -85t-62.5 -60q52 -24 83 -71t31 -105q0 -80 -56.5 -137t-136.5 -57z" />
    <glyph glyph-name="four" unicode="4" horiz-adv-x="502" 
d="M306 170h39q19 0 19 -19t-19 -19h-39v-113q0 -19 -19 -19t-19 19v113h-248q-12 0 -16 9l-1 1q-6 8 -1 19l268 509q6 12 21 9q15 -1 15 -18v-491zM49 170h219v416z" />
    <glyph glyph-name="five" unicode="5" horiz-adv-x="555" 
d="M212 0q-88 0 -150 62t-62 150q0 19 19 19t19 -19q0 -72 51 -123t123 -51q73 0 124 51t51 123t-51 123.5t-124 51.5q-77 0 -129 -57q-9 -11 -22 -4t-10 20l58 318q0 5 5 10q6 6 14 6h196q19 0 19 -19t-19 -19h-181l-46 -251q52 34 115 34q87 0 150 -63t63 -150t-63 -149.5
t-150 -62.5z" />
    <glyph glyph-name="six" unicode="6" horiz-adv-x="555" 
d="M212 425q87 0 150 -63t63 -150t-63 -149.5t-150 -62.5q-88 0 -150 62t-62 150q0 78 53 141l126 160l126 160q13 15 26 3q14 -11 4 -27l-185 -234q29 10 62 10zM212 38q73 0 124 51t51 123q0 73 -51 124t-124 51q-72 0 -123 -51t-51 -124q0 -72 51 -123t123 -51z" />
    <glyph glyph-name="seven" unicode="7" horiz-adv-x="474" 
d="M129 0q-4 0 -5 1q-18 5 -13 23l185 618h-277q-19 0 -19 19t19 19h302q5 0 13 -5q9 -9 6 -20l-193 -642q-5 -13 -18 -13z" />
    <glyph glyph-name="eight" unicode="8" horiz-adv-x="548" 
d="M288 402q58 -25 94 -77t36 -116q0 -86 -61.5 -147.5t-147.5 -61.5t-147.5 61.5t-61.5 147.5q0 64 36 116.5t94 76.5q-71 45 -71 128q0 62 44 106t106 44t106 -44t44 -106q0 -83 -71 -128zM97 530q0 -45 31.5 -77.5t76.5 -34.5h8q45 2 76.5 34.5t31.5 77.5q0 46 -33 79
t-79 33t-79 -33t-33 -79zM209 38q70 0 120.5 50.5t50.5 120.5q0 69 -49 119t-118 52h-8q-69 -2 -118 -52t-49 -119q0 -71 50 -121t121 -50z" />
    <glyph glyph-name="nine" unicode="9" horiz-adv-x="555" 
d="M425 468q0 -77 -54 -141l-251 -320q-6 -7 -15 -7q-8 0 -12 4q-15 13 -3 26l184 235q-29 -10 -62 -10q-87 0 -149.5 63t-62.5 150q0 88 62 150t150 62q87 0 150 -62.5t63 -149.5zM38 468q0 -73 51 -124t123 -51q73 0 124 51t51 124q0 72 -51 123t-124 51q-72 0 -123 -51
t-51 -123z" />
    <glyph glyph-name="colon" unicode=":" 
d="M41 362q-17 0 -29 12t-12 29t12 29t29 12t29 -12t12 -29t-12 -29t-29 -12zM41 81q17 0 29 -12t12 -29t-12 -29.5t-29 -12.5t-29 12.5t-12 29.5t12 29t29 12z" />
    <glyph glyph-name="semicolon" unicode=";" 
d="M41 362q-17 0 -29 12t-12 29t12 29t29 12t29 -12t12 -29t-12 -29t-29 -12zM41 82q17 0 29 -12t12 -29q0 -8 -4 -17l-31 -66q-3 -6 -9 -6h-1q-1 1 -2 1q-9 5 -5 12l17 36q-1 0 -3 -0.5t-3 -0.5q-17 0 -29 12t-12 29t12 29t29 12z" />
    <glyph glyph-name="less" unicode="&#x3c;" horiz-adv-x="372" 
d="M43 222l191 -191q13 -13 0 -26q-5 -5 -12 -5q-5 0 -13 5l-204 204q-5 8 -5 13t5 13l204 204q13 13 25 0q13 -13 0 -26z" />
    <glyph glyph-name="equal" unicode="=" horiz-adv-x="555" 
d="M18 181h399q18 0 18 -18t-18 -18h-399q-18 0 -18 18t18 18zM417 271h-399q-8 0 -13 5.5t-5 12.5q0 19 18 19h399q18 0 18 -19q0 -7 -5 -12.5t-13 -5.5z" />
    <glyph glyph-name="greater" unicode="&#x3e;" horiz-adv-x="372" 
d="M197 222l-192 191q-13 13 0 26q8 5 13 5t13 -5l203 -204q6 -6 6 -13t-6 -13l-203 -204q-13 -13 -26 0t0 26z" />
    <glyph glyph-name="question" unicode="?" horiz-adv-x="493" 
d="M181 65q13 0 22.5 -9.5t9.5 -23.5q0 -13 -9.5 -22.5t-22.5 -9.5q-14 0 -23.5 9.5t-9.5 22.5q0 14 9.5 23.5t23.5 9.5zM181 680q75 0 127.5 -52.5t52.5 -127.5q0 -70 -47 -122t-116 -58v-183q0 -7 -5 -12t-12 -5q-18 0 -18 17v199q0 18 18 18q60 0 103 42.5t43 103.5
q0 60 -43 102.5t-103 42.5q-61 0 -103.5 -42.5t-42.5 -102.5q0 -18 -18 -18q-17 0 -17 18q0 75 53 127.5t128 52.5z" />
    <glyph glyph-name="at" unicode="@" horiz-adv-x="800" 
d="M680 340q0 -95 -50 -178h-1q-23 -36 -67 -44q-5 -2 -20 -2q-32 0 -59 18q-39 27 -45 74q-43 -32 -98 -32q-68 0 -116 48t-48 116t48 116t116 48t116 -48t48 -116q0 -47 -23 -84l-1 -1q-13 -24 -6.5 -50.5t29.5 -41.5q24 -17 52 -11q28 4 45 29q45 70 45 159
q0 126 -89.5 215.5t-215.5 89.5t-215.5 -89.5t-89.5 -215.5t89.5 -215.5t215.5 -89.5q17 0 17 -18q0 -17 -17 -17q-141 0 -240.5 99.5t-99.5 240.5q0 140 99.5 240t240.5 100q140 0 240 -100t100 -240zM340 211q54 0 91.5 37.5t37.5 91.5t-37.5 91.5t-91.5 37.5t-91.5 -37.5
t-37.5 -91.5t37.5 -91.5t91.5 -37.5z" />
    <glyph glyph-name="A" unicode="A" horiz-adv-x="675" 
d="M321 670l288 -646q3 -6 0.5 -13t-9.5 -10q-1 -1 -7 -1q-12 0 -16 10l-107 239h-330l-107 -239q-6 -15 -23 -9q-15 7 -9 23l112 249l176 397q4 10 16 10t16 -10zM155 284h300l-150 336z" />
    <glyph glyph-name="B" unicode="B" horiz-adv-x="564" 
d="M236 455q92 -4 156 -69.5t64 -157.5q0 -94 -67 -161t-161 -67h-211q-7 0 -12 5t-5 12v645q0 18 17 18h114q57 0 97 -40.5t40 -96.5q0 -50 -32 -88zM35 645v-297q49 77 135 100q29 12 46 37.5t17 57.5q0 42 -29.5 72t-72.5 30h-96zM35 35h193q80 0 136.5 56.5t56.5 136.5
t-56.5 136.5t-136.5 56.5t-136.5 -56.5t-56.5 -136.5v-193z" />
    <glyph glyph-name="C" unicode="C" horiz-adv-x="663" 
d="M340 680q118 0 212 -75q14 -13 3 -24q-13 -14 -24 -3q-83 67 -191 67q-126 0 -215.5 -89.5t-89.5 -215.5t89.5 -215.5t215.5 -89.5q17 0 17 -18q0 -17 -17 -17q-141 0 -240.5 99.5t-99.5 240.5q0 140 99.5 240t240.5 100z" />
    <glyph glyph-name="D" unicode="D" horiz-adv-x="594" 
d="M169 0h-152q-7 0 -12 5t-5 12v517q0 60 43 103t103 43q143 0 242 -99t99 -242q0 -127 -91 -231t-227 -108zM35 534v-499h134q81 1 147.5 48t101 115.5t34.5 140.5q0 128 -88.5 217t-217.5 89q-45 0 -78 -33t-33 -78z" />
    <glyph glyph-name="E" unicode="E" horiz-adv-x="474" 
d="M122 35h223q17 0 17 -18q0 -7 -5 -12t-12 -5h-223q-51 0 -86.5 35.5t-35.5 86.5v541q0 7 5 12t12 5h291q17 0 17 -17q0 -18 -17 -18h-273v-288h146q17 0 17 -17t-17 -17h-146v-201q0 -36 25.5 -61.5t61.5 -25.5z" />
    <glyph glyph-name="F" unicode="F" horiz-adv-x="470" 
d="M122 680h257q18 0 18 -17q0 -18 -18 -18h-257q-36 0 -61.5 -25.5t-25.5 -61.5v-201h181q17 0 17 -17t-17 -17h-181v-306q0 -17 -18 -17q-7 0 -12 5t-5 12v323v218q0 51 35.5 86.5t86.5 35.5z" />
    <glyph glyph-name="G" unicode="G" horiz-adv-x="643" 
d="M340 0q-141 0 -240.5 99.5t-99.5 240.5q0 140 99.5 240t240.5 100q104 0 189 -57q16 -10 4 -24q-9 -14 -24 -5q-75 51 -169 51q-126 0 -215.5 -89.5t-89.5 -215.5t89.5 -215.5t215.5 -89.5q22 0 45 3q29 4 63 16q34 14 55 28v187h-63q-17 0 -17 17q0 18 17 18h80
q18 0 18 -18v-214q0 -9 -8 -14q-35 -23 -70 -36q-33 -14 -70 -18q-21 -4 -50 -4z" />
    <glyph glyph-name="H" unicode="H" horiz-adv-x="596" 
d="M472 680q7 0 12 -5t5 -12v-646q0 -7 -5 -12t-12 -5q-18 0 -18 17v306h-419v-306q0 -17 -18 -17q-7 0 -12 5t-5 12v646q0 7 5 12t12 5q18 0 18 -17v-306h419v306q0 17 18 17z" />
    <glyph glyph-name="I" unicode="I" horiz-adv-x="487" 
d="M205 35h154q17 0 17 -18q0 -17 -17 -17h-342q-7 0 -12 5t-5 12q0 18 17 18h154v610h-136q-17 0 -17 18q0 7 5 12t12 5h306q7 0 12 -5t5 -12q0 -18 -17 -18h-136v-610z" />
    <glyph glyph-name="J" unicode="J" horiz-adv-x="471" 
d="M342 680q17 0 17 -17v-483q0 -75 -52.5 -127.5t-126.5 -52.5q-75 0 -127.5 52.5t-52.5 127.5q0 7 5 12t12 5q17 0 17 -17q0 -60 43 -103t103 -43t102.5 43t42.5 103v483q0 7 5 12t12 5z" />
    <glyph glyph-name="K" unicode="K" horiz-adv-x="549" 
d="M434 675q12 -13 1 -24l-311 -334l283 -288q11 -11 -1 -24q-5 -5 -12 -5t-12 5l-281 287l-66 -71v-204q0 -17 -18 -17q-7 0 -12 5t-5 12v646q0 7 5 12t12 5q18 0 18 -17v-391l375 402q12 12 24 1z" />
    <glyph glyph-name="L" unicode="L" horiz-adv-x="441" 
d="M127 35h257q17 0 17 -18q0 -17 -17 -17h-256h-1q-53 0 -90 37t-37 90v536q0 7 5 12t12 5q18 0 18 -17v-536q0 -39 26.5 -65.5t65.5 -26.5z" />
    <glyph glyph-name="M" unicode="M" horiz-adv-x="697" 
d="M576 0q-7 0 -12 5t-5 12v602l-250 -262q-13 -13 -25 0l-249 262v-602q0 -17 -18 -17q-7 0 -12 5t-5 12v646q0 11 11 16q10 5 19 -4l267 -281l267 281q7 7 19 4q11 -6 11 -16v-646q0 -17 -18 -17z" />
    <glyph glyph-name="N" unicode="N" horiz-adv-x="632" 
d="M485 0q-10 0 -14 7l-436 602v-592q0 -17 -18 -17q-7 0 -12 5t-5 12v646q0 13 12 16q13 4 19 -6l437 -602v592q0 7 5 12t12 5q17 0 17 -17v-646q0 -13 -12 -16q-1 -1 -5 -1z" />
    <glyph glyph-name="O" unicode="O" horiz-adv-x="790" 
d="M340 0q-141 0 -240.5 99.5t-99.5 240.5q0 140 99.5 240t240.5 100q140 0 240 -100t100 -240q0 -141 -100 -240.5t-240 -99.5zM340 645q-127 0 -216.5 -89.5t-89.5 -215.5q0 -127 89.5 -216.5t216.5 -89.5q126 0 215.5 89.5t89.5 216.5q0 126 -89.5 215.5t-215.5 89.5z
" />
    <glyph glyph-name="P" unicode="P" horiz-adv-x="629" 
d="M17 680h244q108 0 184.5 -76.5t76.5 -184.5q0 -109 -76.5 -185.5t-184.5 -76.5q-72 0 -132 35.5t-94 95.5v-271q0 -17 -18 -17q-7 0 -12 5t-5 12v646q0 7 5 12t12 5zM261 192q94 0 160.5 66.5t66.5 160.5t-66.5 160t-160.5 66h-226v-233q2 -92 68 -156t158 -64z" />
    <glyph glyph-name="Q" unicode="Q" horiz-adv-x="840" 
d="M623 151l136 -121q14 -12 2 -24q-5 -6 -13 -6q-7 0 -11 4l-135 120q-48 -58 -116.5 -91t-145.5 -33q-141 0 -240.5 99.5t-99.5 240.5q0 140 99.5 240t240.5 100q140 0 240 -100t100 -240q0 -102 -57 -189zM340 34q70 0 131.5 30t104.5 82l-40 36q-13 13 -2 24q14 14 25 2
l37 -34q49 76 49 166q0 126 -89.5 215.5t-215.5 89.5q-127 0 -216.5 -89.5t-89.5 -215.5q0 -127 89.5 -216.5t216.5 -89.5z" />
    <glyph glyph-name="R" unicode="R" horiz-adv-x="628" 
d="M522 419q0 -108 -76.5 -184.5t-184.5 -76.5h-1l164 -127q14 -13 3 -24q-4 -7 -13 -7q-7 0 -11 4l-368 284v-271q0 -17 -18 -17q-7 0 -12 5t-5 12v646q0 7 5 12t12 5h244q108 0 184.5 -76.5t76.5 -184.5zM35 645v-313l146 -113q33 -27 80 -27q94 0 160 66.5t66 160.5
t-66 160t-160 66h-226z" />
    <glyph glyph-name="S" unicode="S" horiz-adv-x="540" 
d="M215 0q-89 0 -152 63t-63 152q0 65 36 120q11 14 24 5q14 -9 5 -24q-31 -46 -31 -101q0 -75 53 -128t128 -53t128.5 53t53.5 128t-53.5 128.5t-128.5 53.5h-1q-57 0 -98 42t-41 99q0 58 41.5 100t100.5 42t100.5 -42t41.5 -100q0 -7 -5 -12t-12 -5q-17 0 -17 17
q0 45 -32 76.5t-76 31.5t-76 -31.5t-32 -76.5q0 -44 32 -75.5t76 -31.5h1q88 -2 150.5 -65t62.5 -151q0 -89 -63.5 -152t-152.5 -63z" />
    <glyph glyph-name="T" unicode="T" horiz-adv-x="601" 
d="M-53 680h553q7 0 12 -5t5 -12q0 -18 -17 -18h-259v-628q0 -7 -5 -12t-12 -5q-18 0 -18 17v628h-259q-17 0 -17 18q0 7 5 12t12 5z" />
    <glyph glyph-name="U" unicode="U" horiz-adv-x="570" 
d="M445 680q7 0 12 -5t5 -12v-521q0 -58 -42 -100t-100 -42h-178q-58 0 -100 42t-42 100v521q0 7 5 12t12 5q18 0 18 -17v-521q0 -44 31.5 -75.5t75.5 -31.5h178q44 0 76 31.5t32 75.5v521q0 17 17 17z" />
    <glyph glyph-name="V" unicode="V" horiz-adv-x="679" 
d="M292 0q-11 0 -16 11l-275 645q-4 16 10 23q6 2 13 -0.5t9 -9.5l259 -607l259 607q7 14 23 10q16 -7 9 -23l-275 -645q-3 -11 -16 -11z" />
    <glyph glyph-name="W" unicode="W" horiz-adv-x="715" 
d="M596 0q-8 0 -12 4l-278 253l-277 -253q-8 -6 -19 -3q-10 4 -10 16v646q0 7 5 12t12 5q18 0 18 -17v-607l260 237q11 11 23 0l260 -237v607q0 17 18 17q7 0 12 -5t5 -12v-646q0 -12 -10 -16q-2 -1 -7 -1z" />
    <glyph glyph-name="X" unicode="X" horiz-adv-x="629" 
d="M284 340l237 -312q10 -12 -3 -25q-4 -3 -11 -3q-9 0 -13 7l-232 304l-231 -304q-4 -7 -14 -7q-5 0 -10 3q-13 11 -4 25l238 312l-238 312q-10 15 4 24q11 11 24 -3l231 -305l233 305q4 6 11 7t13 -4q15 -11 3 -24z" />
    <glyph glyph-name="Y" unicode="Y" horiz-adv-x="635" 
d="M521 677q17 -11 5 -24l-249 -401v-235q0 -17 -18 -17q-7 0 -12 5t-5 12v235l-240 402q-4 6 -2 13t8 10q16 9 24 -6l227 -380l238 381q9 14 24 5z" />
    <glyph glyph-name="Z" unicode="Z" horiz-adv-x="746" 
d="M629 0h-612q-12 0 -16 10q-5 11 3 19l566 617h-403q-17 0 -17 17q0 7 5 12t12 5h442q12 0 16 -10q3 -12 -4 -19l-565 -617h573q18 0 18 -17t-18 -17z" />
    <glyph glyph-name="bracketleft" unicode="[" horiz-adv-x="299" 
d="M37 -265h101q18 0 18 -18t-18 -18h-120q-18 0 -18 18v944q0 19 18 19h120q18 0 18 -19q0 -18 -18 -18h-101v-908z" />
    <glyph glyph-name="backslash" unicode="\" horiz-adv-x="435" 
d="M10 679q16 4 23 -10l267 -646q6 -15 -10 -22q-1 -1 -6 -1q-12 0 -16 10l-267 646q-4 16 9 23z" />
    <glyph glyph-name="bracketright" unicode="]" horiz-adv-x="299" 
d="M18 -265h102v908h-102q-18 0 -18 18q0 19 18 19h120q18 0 18 -19v-944q0 -18 -18 -18h-120q-18 0 -18 18t18 18z" />
    <glyph glyph-name="asciicircum" unicode="^" horiz-adv-x="411" 
d="M159 674l134 -204q7 -10 -4 -18q-6 -2 -7 -2q-7 0 -10 6l-124 189l-124 -189q-4 -6 -11 -6q-1 0 -7 2q-11 8 -4 18l134 204q3 6 10 6h3q7 0 10 -6z" />
    <glyph glyph-name="underscore" unicode="_" horiz-adv-x="508" 
d="M18 -133h352q18 0 18 -18q0 -19 -18 -19h-352q-18 0 -18 19q0 18 18 18z" />
    <glyph glyph-name="a" unicode="a" horiz-adv-x="524" 
d="M406 443q18 0 18 -18v-407q0 -18 -18 -18t-18 18v84q-30 -48 -78.5 -75t-107.5 -27q-92 0 -157 65t-65 157t65 157t157 65q58 0 107 -27.5t79 -74.5v83q0 18 18 18zM202 36q77 0 131.5 54.5t54.5 131.5t-54.5 131.5t-131.5 54.5t-131.5 -54.5t-54.5 -131.5t54.5 -131.5
t131.5 -54.5z" />
    <glyph glyph-name="b" unicode="b" horiz-adv-x="530" 
d="M222 444q92 0 157 -65t65 -157t-65 -157t-157 -65q-59 0 -108 27.5t-79 75.5v-86q0 -17 -18 -17q-7 0 -12 5t-5 12v664q0 7 5 12t12 5q18 0 18 -17v-340q30 48 79 75.5t108 27.5zM222 36q77 0 131.5 54.5t54.5 131.5t-54.5 131.5t-131.5 54.5t-131.5 -54.5t-54.5 -131.5
t54.5 -131.5t131.5 -54.5z" />
    <glyph glyph-name="c" unicode="c" horiz-adv-x="485" 
d="M222 0q-92 0 -157 65t-65 157t65 157t157 65q98 0 165 -73q12 -12 -2 -25q-12 -12 -25 1q-55 61 -138 61q-77 0 -131.5 -54.5t-54.5 -131.5t54.5 -131.5t131.5 -54.5q18 0 18 -18t-18 -18z" />
    <glyph glyph-name="d" unicode="d" horiz-adv-x="564" 
d="M0 222q0 92 65 157t157 65q59 0 108 -27.5t79 -75.5v340q0 17 18 17q7 0 12 -5t5 -12v-664q0 -7 -5 -12t-12 -5q-18 0 -18 17v86q-30 -48 -79 -75.5t-108 -27.5q-92 0 -157 65t-65 157zM36 222q0 -77 54.5 -131.5t131.5 -54.5t131.5 54.5t54.5 131.5t-54.5 131.5
t-131.5 54.5t-131.5 -54.5t-54.5 -131.5z" />
    <glyph glyph-name="e" unicode="e" horiz-adv-x="532" 
d="M38 237h-2v-15q0 -77 54.5 -131.5t131.5 -54.5q94 0 148 73q11 13 22 36q7 16 23 9t9 -24q-9 -21 -25 -42q-68 -88 -177 -88q-92 0 -157 65t-65 157t65 157t157 65q82 0 144.5 -52.5t74.5 -133.5q2 -8 -4 -15q-5 -6 -14 -6h-385zM222 408q-64 0 -113 -38t-66 -97h358
q-16 59 -65.5 97t-113.5 38z" />
    <glyph glyph-name="f" unicode="f" horiz-adv-x="321" 
d="M71 367h125q17 0 17 -18t-17 -18h-125v-313q0 -18 -18 -18q-17 0 -17 18v313h-18q-18 0 -18 18t18 18h18v206q0 51 37 88t88 37h22q17 0 17 -18t-17 -18h-22q-38 0 -64 -26t-26 -63v-206z" />
    <glyph glyph-name="g" unicode="g" horiz-adv-x="564" 
d="M427 443q7 0 12 -5t5 -12v-511q0 -89 -63.5 -152.5t-152.5 -63.5t-152.5 63.5t-63.5 152.5q0 30 7 54q6 17 21 12q18 -6 13 -21q-6 -22 -6 -45q0 -75 53 -128t128 -53t128 53t53 128v188q-30 -48 -79 -75.5t-108 -27.5q-92 0 -157 65t-65 157t65 157t157 65
q59 0 108 -27.5t79 -75.5v85q0 17 18 17zM222 36q77 0 131.5 54.5t54.5 131.5t-54.5 131.5t-131.5 54.5t-131.5 -54.5t-54.5 -131.5t54.5 -131.5t131.5 -54.5z" />
    <glyph glyph-name="h" unicode="h" horiz-adv-x="469" 
d="M180 444q74 0 126.5 -52.5t52.5 -127.5v-247q0 -17 -17 -17q-7 0 -12 5t-5 12v247q0 60 -42.5 102.5t-102.5 42.5t-102.5 -42.5t-42.5 -102.5v-247q0 -17 -18 -17q-17 0 -17 31v663q1 -2 2.5 -1t6 3t8.5 2q18 0 18 -17v-311q53 74 145 74z" />
    <glyph glyph-name="i" unicode="i" horiz-adv-x="231" 
d="M66 444q17 0 17 -18v-408q0 -18 -17 -18q-18 0 -18 18v408q0 18 18 18zM66 643q14 0 24.5 -10.5t10.5 -25.5q0 -14 -10.5 -24.5t-24.5 -10.5q-15 0 -25.5 10.5t-10.5 24.5q0 15 10.5 25.5t25.5 10.5z" />
    <glyph glyph-name="j" unicode="j" horiz-adv-x="231" 
d="M88 444q18 0 18 -17v-583q0 -37 -26 -62.5t-63 -25.5q-7 0 -12 5t-5 12q0 18 17 18q23 0 38.5 15.5t15.5 37.5v583q0 7 5 12t12 5zM88 643q15 0 25 -10.5t10 -24.5q0 -15 -10 -25.5t-25 -10.5q-14 0 -24.5 10.5t-10.5 25.5q0 14 10.5 24.5t24.5 10.5z" />
    <glyph glyph-name="k" unicode="k" horiz-adv-x="385" 
d="M44 229l230 -199q12 -12 1 -24q-5 -6 -13 -6q-7 0 -11 4l-216 186v-173q0 -17 -18 -17q-7 0 -12 5t-5 12v664q0 7 5 12t12 5q18 0 18 -17v-414l191 172q12 11 24 -1t-1 -24z" />
    <glyph glyph-name="l" unicode="l" horiz-adv-x="255" 
d="M118 35q17 0 17 -18q0 -17 -17 -17q-36 0 -62 25.5t-26 62.5v593q0 7 5 12t12 5q18 0 18 -17v-593q0 -22 15.5 -37.5t37.5 -15.5z" />
    <glyph glyph-name="m" unicode="m" horiz-adv-x="714" 
d="M437 444q65 0 111 -46.5t46 -111.5v-268q0 -18 -17 -18q-18 0 -18 18v268q0 51 -35.5 86.5t-86.5 35.5t-86.5 -35.5t-35.5 -86.5v-268q0 -18 -18 -18t-18 18v268q0 51 -35.5 86.5t-86.5 35.5q-50 0 -85.5 -35.5t-35.5 -86.5v-268q0 -18 -18 -18t-18 18v407q0 18 18 18
t18 -18v-39q48 58 121 58q45 0 82 -23t58 -62q21 39 58 62t82 23z" />
    <glyph glyph-name="n" unicode="n" horiz-adv-x="453" 
d="M178 444q74 0 126 -52t52 -126v-247q0 -18 -18 -18q-17 0 -17 18v247q0 59 -41.5 100.5t-101.5 41.5q-58 0 -100 -42t-42 -100v-248q0 -18 -18 -18t-18 18v407q0 18 18 18t18 -18v-53q52 72 142 72z" />
    <glyph glyph-name="o" unicode="o" horiz-adv-x="530" 
d="M222 0q-92 0 -157 65t-65 157t65 157t157 65t157 -65t65 -157t-65 -157t-157 -65zM222 408q-77 0 -131.5 -54.5t-54.5 -131.5t54.5 -131.5t131.5 -54.5t131.5 54.5t54.5 131.5t-54.5 131.5t-131.5 54.5z" />
    <glyph glyph-name="p" unicode="p" horiz-adv-x="534" 
d="M222 444q92 0 157 -65t65 -157t-65 -157t-157 -65q-58 0 -107.5 27.5t-79.5 74.5v-346q0 -17 -18 -17q-7 0 -12 5t-5 12v670q0 18 17 18q18 0 18 -18v-84q30 47 79.5 74.5t107.5 27.5zM222 36q77 0 131.5 54.5t54.5 131.5t-54.5 131.5t-131.5 54.5t-131.5 -54.5
t-54.5 -131.5t54.5 -131.5t131.5 -54.5z" />
    <glyph glyph-name="q" unicode="q" horiz-adv-x="534" 
d="M0 222q0 92 65 157t157 65q58 0 107 -27.5t80 -74.5v84q0 18 17 18q18 0 18 -18v-670q0 -17 -18 -17q-7 0 -12 5t-5 12v346q-31 -47 -80 -74.5t-107 -27.5q-92 0 -157 65t-65 157zM36 222q0 -77 54.5 -131.5t131.5 -54.5t131.5 54.5t54.5 131.5t-54.5 131.5t-131.5 54.5
t-131.5 -54.5t-54.5 -131.5z" />
    <glyph glyph-name="r" unicode="r" horiz-adv-x="340" 
d="M222 444q18 0 18 -18t-18 -18q-77 0 -131.5 -54.5t-54.5 -131.5v-204q0 -18 -18 -18t-18 18v407q0 18 18 18t18 -18v-83q30 48 78.5 75t107.5 27z" />
    <glyph glyph-name="s" unicode="s" horiz-adv-x="385" 
d="M143 0q-60 0 -101.5 41.5t-41.5 101.5q0 44 24 80q11 14 25 5q13 -12 5 -25q-18 -27 -18 -60q0 -44 31.5 -75.5t75.5 -31.5t76 31.5t32 75.5t-32 76t-76 32h-1q-39 0 -66.5 28.5t-27.5 67.5q0 41 28 69t68 28t68.5 -28.5t28.5 -68.5q0 -18 -18 -18t-18 18
q0 26 -17.5 43.5t-43.5 17.5q-25 0 -43 -17.5t-18 -43.5q0 -25 18 -43t43 -18h1q58 0 99.5 -42t41.5 -101q0 -60 -41.5 -101.5t-101.5 -41.5z" />
    <glyph glyph-name="t" unicode="t" horiz-adv-x="301" 
d="M88 444h88q18 0 18 -18q0 -17 -18 -17h-88v-319q0 -23 16 -39t39 -16q7 0 12 -5t5 -12q0 -18 -17 -18q-38 0 -64 26t-26 64v319h-35q-18 0 -18 17q0 18 18 18h35v125q0 18 18 18q17 0 17 -18v-125z" />
    <glyph glyph-name="u" unicode="u" horiz-adv-x="461" 
d="M338 444q18 0 18 -18v-407q0 -18 -18 -18q-17 0 -17 18v53q-54 -72 -143 -72q-74 0 -126 52t-52 126v247q0 18 18 18t18 -18v-247q0 -58 42 -100t100 -42q60 0 101.5 41.5t41.5 100.5v248q0 18 17 18z" />
    <glyph glyph-name="v" unicode="v" horiz-adv-x="479" 
d="M192 0q-12 0 -17 11l-174 408q-6 17 10 24q16 4 23 -10l158 -370l158 370q5 16 23 10q16 -7 9 -24l-174 -408q-5 -11 -16 -11z" />
    <glyph glyph-name="w" unicode="w" horiz-adv-x="553" 
d="M447 0q-7 0 -11 4l-204 158l-203 -158q-9 -7 -19 -2q-10 4 -10 16v408q0 18 18 18q17 0 17 -18v-372l186 144q12 7 22 0l186 -144v372q0 18 18 18q17 0 17 -18v-408q0 -12 -9 -16z" />
    <glyph glyph-name="x" unicode="x" horiz-adv-x="462" 
d="M215 222l147 -194q10 -15 -4 -24q-4 -4 -10 -4q-10 0 -14 7l-141 186l-141 -186q-6 -7 -14 -7q-7 0 -11 4q-6 4 -7 11t4 13l147 194l-147 194q-11 11 3 24q13 11 25 -3l141 -186l141 186q12 14 25 3q14 -13 3 -24z" />
    <glyph glyph-name="y" unicode="y" horiz-adv-x="486" 
d="M386 442q16 -7 8 -23l-320 -658q-4 -10 -16 -10l-8 2q-15 7 -8 23l117 239l-158 405q-4 16 10 23q16 4 23 -10l146 -375l183 376q8 15 23 8z" />
    <glyph glyph-name="z" unicode="z" horiz-adv-x="503" 
d="M403 0h-385q-18 0 -18 18v2q0 7 5 12l345 376h-239q-18 0 -18 18t18 18h279q12 0 17 -11q4 -10 -3 -19l-347 -378h346q18 0 18 -18t-18 -18z" />
    <glyph glyph-name="braceleft" unicode="{" horiz-adv-x="338" 
d="M179 -265q18 0 18 -18t-18 -18q-44 0 -75.5 31.5t-31.5 75.5v304l-67 67q-13 13 0 25l67 67v304q0 44 31.5 75.5t75.5 31.5q18 0 18 -18t-18 -18q-29 0 -50 -21t-21 -50v-767q0 -29 21 -50t50 -21z" />
    <glyph glyph-name="bar" unicode="|" horiz-adv-x="182" 
d="M18 680q18 0 18 -18v-945q0 -18 -18 -18t-18 18v945q0 18 18 18z" />
    <glyph glyph-name="braceright" unicode="}" horiz-adv-x="338" 
d="M0 -283q0 18 18 18q29 0 50 21t21 50v767q0 29 -21 50t-50 21q-18 0 -18 18t18 18q44 0 75.5 -31.5t31.5 -75.5v-304l67 -67q12 -12 0 -25l-67 -67v-304q0 -44 -31.5 -75.5t-75.5 -31.5q-18 0 -18 18z" />
    <glyph glyph-name="asciitilde" unicode="~" horiz-adv-x="305" 
d="M175 235q19 -12 6 -28q-12 -19 -35 -24q-2 -1 -11 -1q-17 0 -30 9l-48 32q-4 2 -11 1q-5 0 -8 -5q-7 -10 -17 -10q-8 0 -12 4q-17 13 -6 28q14 20 35 24q23 5 41 -8l49 -32q4 -2 10 -2q6 1 9 6q12 19 28 6z" />
    <glyph glyph-name="dieresis" unicode="&#xa8;" horiz-adv-x="383" 
d="M36 613q14 0 24.5 -10.5t10.5 -25.5q0 -14 -10.5 -24.5t-24.5 -10.5q-15 0 -25.5 10.5t-10.5 24.5q0 15 10.5 25.5t25.5 10.5zM234 613q14 0 24.5 -10.5t10.5 -25.5q0 -14 -10.5 -24.5t-24.5 -10.5q-15 0 -25.5 10.5t-10.5 24.5q0 15 10.5 25.5t25.5 10.5z" />
    <glyph glyph-name="cedilla" unicode="&#xb8;" horiz-adv-x="456" 
d="M232 7l-1 -7l-7 -29q36 -4 54 -21t18 -43q0 -33 -20 -51t-57 -18q-31 0 -55 12q-19 11 -11 26q4 13 30 4q14 -7 38 -7q37 0 37 32t-54 35q-21 1 -16 18l11 43z" />
    <glyph glyph-name="Ccedilla" unicode="&#xc7;" horiz-adv-x="663" 
d="M340 0h-1l-7 -29q36 -4 54 -21t18 -43q0 -33 -20 -51t-57 -18q-31 0 -55 12q-19 11 -11 26q4 13 30 4q14 -7 38 -7q37 0 37 32t-54 35q-21 1 -16 18l11 43q-130 12 -218.5 109.5t-88.5 229.5q0 141 99.5 240.5t240.5 99.5q17 0 17 -17q0 -18 -17 -18q-126 0 -215.5 -89.5
t-89.5 -215.5t89.5 -215.5t215.5 -89.5q109 0 191 67q11 11 24 -3q11 -11 -3 -24q-94 -75 -212 -75z" />
    <glyph glyph-name="Odieresis" unicode="&#xd6;" horiz-adv-x="790" 
d="M340 0q-141 0 -240.5 99.5t-99.5 240.5q0 140 99.5 240t240.5 100q140 0 240 -100t100 -240q0 -141 -100 -240.5t-240 -99.5zM340 645q-127 0 -216.5 -89.5t-89.5 -215.5q0 -127 89.5 -216.5t216.5 -89.5q126 0 215.5 89.5t89.5 216.5q0 126 -89.5 215.5t-215.5 89.5z
M242 821q14 0 24.5 -10.5t10.5 -25.5q0 -14 -10.5 -24.5t-24.5 -10.5q-15 0 -25.5 10.5t-10.5 24.5q0 15 10.5 25.5t25.5 10.5zM440 821q14 0 24.5 -10.5t10.5 -25.5q0 -14 -10.5 -24.5t-24.5 -10.5q-15 0 -25.5 10.5t-10.5 24.5q0 15 10.5 25.5t25.5 10.5z" />
    <glyph glyph-name="Udieresis" unicode="&#xdc;" horiz-adv-x="570" 
d="M445 680q7 0 12 -5t5 -12v-521q0 -58 -42 -100t-100 -42h-178q-58 0 -100 42t-42 100v521q0 7 5 12t12 5q18 0 18 -17v-521q0 -44 31.5 -75.5t75.5 -31.5h178q44 0 76 31.5t32 75.5v521q0 17 17 17zM133 821q14 0 24.5 -10.5t10.5 -25.5q0 -14 -10.5 -24.5t-24.5 -10.5
q-15 0 -25.5 10.5t-10.5 24.5q0 15 10.5 25.5t25.5 10.5zM331 821q14 0 24.5 -10.5t10.5 -25.5q0 -14 -10.5 -24.5t-24.5 -10.5q-15 0 -25.5 10.5t-10.5 24.5q0 15 10.5 25.5t25.5 10.5z" />
    <glyph glyph-name="ccedilla" unicode="&#xe7;" horiz-adv-x="485" 
d="M222 444q18 0 18 -18t-18 -18q-77 0 -131.5 -54.5t-54.5 -131.5t54.5 -131.5t131.5 -54.5q83 0 138 61q13 13 25 1q14 -13 2 -25q-62 -68 -157 -73l-7 -28q36 -4 54 -21t18 -43q0 -33 -20 -51t-57 -18q-31 0 -55 12q-19 11 -11 26q4 13 30 4q14 -7 38 -7q37 0 37 32
t-54 35q-21 1 -16 18l11 42q-84 8 -141 71.5t-57 149.5q0 92 65 157t157 65z" />
    <glyph glyph-name="odieresis" unicode="&#xf6;" horiz-adv-x="530" 
d="M222 0q-92 0 -157 65t-65 157t65 157t157 65t157 -65t65 -157t-65 -157t-157 -65zM222 408q-77 0 -131.5 -54.5t-54.5 -131.5t54.5 -131.5t131.5 -54.5t131.5 54.5t54.5 131.5t-54.5 131.5t-131.5 54.5zM124 643q14 0 24.5 -10.5t10.5 -25.5q0 -14 -10.5 -24.5
t-24.5 -10.5q-15 0 -25.5 10.5t-10.5 24.5q0 15 10.5 25.5t25.5 10.5zM322 643q14 0 24.5 -10.5t10.5 -25.5q0 -14 -10.5 -24.5t-24.5 -10.5q-15 0 -25.5 10.5t-10.5 24.5q0 15 10.5 25.5t25.5 10.5z" />
    <glyph glyph-name="udieresis" unicode="&#xfc;" horiz-adv-x="461" 
d="M338 444q18 0 18 -18v-407q0 -18 -18 -18q-17 0 -17 18v53q-54 -72 -143 -72q-74 0 -126 52t-52 126v247q0 18 18 18t18 -18v-247q0 -58 42 -100t100 -42q60 0 101.5 41.5t41.5 100.5v248q0 18 17 18zM80 643q14 0 24.5 -10.5t10.5 -25.5q0 -14 -10.5 -24.5t-24.5 -10.5
q-15 0 -25.5 10.5t-10.5 24.5q0 15 10.5 25.5t25.5 10.5zM278 643q14 0 24.5 -10.5t10.5 -25.5q0 -14 -10.5 -24.5t-24.5 -10.5q-15 0 -25.5 10.5t-10.5 24.5q0 15 10.5 25.5t25.5 10.5z" />
    <glyph glyph-name="Gbreve" unicode="&#x11e;" horiz-adv-x="643" 
d="M340 0q-141 0 -240.5 99.5t-99.5 240.5q0 140 99.5 240t240.5 100q104 0 189 -57q16 -10 4 -24q-9 -14 -24 -5q-75 51 -169 51q-126 0 -215.5 -89.5t-89.5 -215.5t89.5 -215.5t215.5 -89.5q22 0 45 3q29 4 63 16q34 14 55 28v187h-63q-17 0 -17 17q0 18 17 18h80
q18 0 18 -18v-214q0 -9 -8 -14q-33 -22 -70 -36q-33 -14 -70 -18q-21 -4 -50 -4zM312 750q-43 0 -71 17.5t-28 53.5q-1 7 4 12.5t13 5.5q7 -1 12.5 -6t4.5 -12q0 -35 65 -35t65 35q-1 7 4.5 12t12.5 6q8 0 13 -5.5t4 -12.5q0 -36 -28 -53.5t-71 -17.5z" />
    <glyph glyph-name="gbreve" unicode="&#x11f;" horiz-adv-x="564" 
d="M427 443q7 0 12 -5t5 -12v-511q0 -89 -63.5 -152.5t-152.5 -63.5t-152.5 63.5t-63.5 152.5q0 32 7 54q6 17 21 12q18 -6 13 -21q-6 -22 -6 -45q0 -75 53 -128t128 -53t128 53t53 128v188q-30 -48 -79 -75.5t-108 -27.5q-92 0 -157 65t-65 157t65 157t157 65
q59 0 108 -27.5t79 -75.5v85q0 17 18 17zM222 36q77 0 131.5 54.5t54.5 131.5t-54.5 131.5t-131.5 54.5t-131.5 -54.5t-54.5 -131.5t54.5 -131.5t131.5 -54.5zM226 572q-43 0 -71 17.5t-28 53.5q-1 7 4 12.5t13 5.5q7 -1 12.5 -6t4.5 -12q0 -35 65 -35t65 35q-1 7 4.5 12
t12.5 6q8 0 13 -5.5t4 -12.5q0 -36 -28 -53.5t-71 -17.5z" />
    <glyph glyph-name="Idot" unicode="&#x130;" horiz-adv-x="487" 
d="M205 35h154q17 0 17 -18q0 -17 -17 -17h-342q-7 0 -12 5t-5 12q0 18 17 18h154v610h-136q-17 0 -17 18q0 7 5 12t12 5h306q7 0 12 -5t5 -12q0 -18 -17 -18h-136v-610zM188 821q14 0 24.5 -10.5t10.5 -25.5q0 -14 -10.5 -24.5t-24.5 -10.5q-15 0 -25.5 10.5t-10.5 24.5
q0 15 10.5 25.5t25.5 10.5z" />
    <glyph glyph-name="dotlessi" unicode="&#x131;" horiz-adv-x="195" 
d="M48 444q17 0 17 -18v-408q0 -18 -17 -18q-18 0 -18 18v408q0 18 18 18z" />
    <glyph glyph-name="Scedilla" unicode="&#x15e;" horiz-adv-x="540" 
d="M231 0l-7 -29q36 -4 54 -21t18 -43q0 -33 -20 -51t-57 -18q-31 0 -55 12q-19 11 -11 26q4 13 30 4q14 -7 38 -7q37 0 37 32t-54 35q-21 1 -16 18l11 42q-34 3 -68 17q-58 25 -94.5 79t-36.5 119t36 120q11 14 24 5q14 -9 5 -24q-31 -46 -31 -101q0 -75 53 -128t128 -53
t128.5 53t53.5 128t-53.5 128.5t-128.5 53.5h-1q-57 0 -98 42t-41 99q0 58 41.5 100t100.5 42t100.5 -42t41.5 -100q0 -7 -5 -12t-12 -5q-17 0 -17 17q0 45 -32 76.5t-76 31.5t-76 -31.5t-32 -76.5q0 -44 32 -75.5t76 -31.5h1q88 -2 150.5 -65t62.5 -151q0 -66 -36.5 -119
t-95.5 -79q-33 -14 -68 -17z" />
    <glyph glyph-name="scedilla" unicode="&#x15f;" horiz-adv-x="385" 
d="M160 1v-1l-7 -29q36 -4 54 -21t18 -43q0 -33 -20 -51t-57 -18q-31 0 -55 12q-19 11 -11 26q4 13 30 4q14 -7 38 -7q37 0 37 32t-54 35q-21 1 -16 18l11 42q-20 1 -41 11q-40 17 -63.5 52.5t-23.5 79.5t24 80q11 14 25 5q13 -12 5 -25q-18 -27 -18 -60q0 -44 31.5 -75.5
t75.5 -31.5t76 31.5t32 75.5t-32 76t-76 32h-1q-39 0 -66.5 28.5t-27.5 67.5q0 41 28 69t68 28t68.5 -28.5t28.5 -68.5q0 -18 -18 -18t-18 18q0 26 -17.5 43.5t-43.5 17.5q-25 0 -43 -17.5t-18 -43.5q0 -25 18 -43t43 -18h1q58 0 99.5 -42t41.5 -101q0 -44 -23.5 -79.5
t-63.5 -52.5q-23 -9 -39 -10z" />
    <glyph glyph-name="uni018f" unicode="&#x18f;" horiz-adv-x="790" 
d="M645 357l-2 23q-18 114 -102.5 189.5t-200.5 75.5q-153 0 -249 -128q-21 -29 -32 -56q-5 -13 -10 -15.5t-18 2.5q-3 1 -5 3t-2.5 4l-1 4t1 5t2 5t2.5 6l3 6q12 26 38 64q104 135 271 135q141 0 240.5 -99.5t99.5 -240.5t-99.5 -240.5t-240.5 -99.5q-129 0 -227 87
t-112 229q-7 18 6 32q6 9 21 9h614h3zM347 34q117 2 204.5 85.5t93.5 203.5h-611q4 -112 92.5 -201.5t220.5 -87.5z" />
    <glyph glyph-name="uni0259" unicode="&#x259;" horiz-adv-x="531" 
d="M409 226l-1 15q-6 67 -58 117t-127 50q-94 0 -148 -73q-13 -17 -22 -36q-7 -16 -23 -9t-9 24q9 21 25 42q68 88 177 88q92 0 157 -65t65 -157t-65 -157t-157 -65q-85 0 -149 56t-73 149q-2 8 4 15q4 6 14 6h388h2zM223 36q69 0 119.5 43t64.5 111h-368q14 -68 65 -111
t119 -43z" />
    <glyph glyph-name="breve" unicode="&#x2d8;" horiz-adv-x="626" 
d="M312 572q-43 0 -71 17.5t-28 53.5q-1 7 4 12.5t13 5.5q7 -1 12.5 -6t4.5 -12q0 -35 65 -35t65 35q-1 7 4.5 12t12.5 6q8 0 13 -5.5t4 -12.5q0 -36 -28 -53.5t-71 -17.5z" />
    <glyph glyph-name="tilde" unicode="&#x2dc;" horiz-adv-x="305" 
d="M178 233q11 -5 4 -18q-14 -23 -42 -23q-15 0 -28 9l-54 35q-8 5 -18.5 3t-15.5 -10q-4 -6 -11 -6q-5 0 -7 2q-11 8 -4 18q11 17 32 21.5t38 -6.5l54 -36q9 -5 19 -3t15 11q8 10 18 3z" />
    <glyph glyph-name="endash" unicode="&#x2013;" horiz-adv-x="321" 
d="M19 253h163q8 0 13.5 -6t5.5 -14q0 -19 -19 -19h-163q-19 0 -19 19q0 8 5.5 14t13.5 6z" />
    <glyph glyph-name="emdash" unicode="&#x2014;" horiz-adv-x="411" 
d="M19 253h253q8 0 13.5 -6t5.5 -14q0 -19 -19 -19h-253q-19 0 -19 19q0 8 5.5 14t13.5 6z" />
    <glyph glyph-name="quoteleft" unicode="&#x2018;" horiz-adv-x="279" 
d="M73 597q31 0 52.5 -21.5t21.5 -51.5q0 -31 -21.5 -52.5t-52.5 -21.5q-30 0 -51.5 21.5t-21.5 52.5q0 11 5 26v1l1 1v1l57 120q5 11 15 6q10 -6 6 -16l-33 -70q9 4 22 4z" />
    <glyph glyph-name="quoteright" unicode="&#x2019;" horiz-adv-x="279" 
d="M73 534q-30 0 -51.5 21.5t-21.5 51.5t21.5 51.5t51.5 21.5q31 0 52.5 -21.5t21.5 -51.5q0 -15 -6 -27v-1q0 -1 -1 -1l-56 -121q-5 -11 -16 -6q-10 4 -5 16l33 71q-9 -4 -23 -4z" />
    <glyph glyph-name="quotedblleft" unicode="&#x201c;" horiz-adv-x="464" 
d="M277 597q30 0 51.5 -21.5t21.5 -51.5q0 -31 -21.5 -52.5t-51.5 -21.5t-51.5 21.5t-21.5 52.5q0 11 5 26v1v1l1 1l56 120q6 10 16 6q11 -5 6 -16l-33 -70q9 4 22 4zM73 597q31 0 52.5 -21.5t21.5 -51.5q0 -31 -21.5 -52.5t-52.5 -21.5q-30 0 -51.5 21.5t-21.5 52.5
q0 11 5 26v1l1 1v1l57 120q5 11 15 6q10 -6 6 -16l-33 -70q9 4 22 4z" />
    <glyph glyph-name="quotedblright" unicode="&#x201d;" horiz-adv-x="464" 
d="M73 534q-30 0 -51.5 21.5t-21.5 51.5t21.5 51.5t51.5 21.5q31 0 52.5 -21.5t21.5 -51.5q0 -15 -6 -27v-1q0 -1 -1 -1l-56 -121q-5 -11 -16 -6q-10 4 -5 16l33 71q-9 -4 -23 -4zM277 534q-30 0 -51.5 21.5t-21.5 51.5t21.5 51.5t51.5 21.5t51.5 -21.5t21.5 -51.5
q0 -12 -5 -27v-1l-1 -1l-56 -121q-5 -11 -16 -6t-6 16l33 71q-8 -4 -22 -4z" />
    <glyph glyph-name="fraction" unicode="&#x2044;" horiz-adv-x="280" 
 />
    <glyph glyph-name="_107" horiz-adv-x="790" 
d="M259 823q14 0 24.5 -10.5t10.5 -25.5q0 -14 -10.5 -24.5t-24.5 -10.5q-15 0 -25.5 10.5t-10.5 24.5q0 15 10.5 25.5t25.5 10.5zM457 823q14 0 24.5 -10.5t10.5 -25.5q0 -14 -10.5 -24.5t-24.5 -10.5q-15 0 -25.5 10.5t-10.5 24.5q0 15 10.5 25.5t25.5 10.5z" />
  </font>
</defs>
</svg>
